<svg version="1.1" xmlns="http://www.w3.org/2000/svg" xmlns:xlink="http://www.w3.org/1999/xlink" x="0px" y="0px" viewBox="0 0 256 256" enable-background="new 0 0 256 256" xml:space="preserve">
<metadata> Svg Vector Icons : http://www.onlinewebfonts.com/icon </metadata>
<g><g><path fill="#000000" d="M180.3,225.7l-50.7-7.6c-43-6.4-68.6-20.8-75.9-42.6c-10.9-32.4,23.1-67.4,24.6-68.8l25.8-25.1L52.8,37.8h151.7l-0.9,133.9l-52.1-42.5c-27,18.5-40.7,35.8-39.5,50.3c1.3,16.1,21.3,25.4,21.5,25.5L180.3,225.7L180.3,225.7z M90.3,51.6l34.4,29.3l-36.6,35.5c-0.2,0.2-29.5,30.3-21.2,54.7c4,11.8,17,21.2,37.9,27.5c-3.4-5-6-11-6.6-18c-1.7-20.9,15.1-43,49.9-65.8l4.3-2.8l37.5,30.6l0.6-91.1L90.3,51.6L90.3,51.6z M216.5,10.1h-177C23.2,10.1,10,20.1,10,36.2v180.3c0,16.2,13.2,29.3,29.5,29.3h177c16.3,0,29.5-13.1,29.5-29.3V36.2C246,20.1,232.8,10.1,216.5,10.1L216.5,10.1z M231.2,216.5c0,8.1-6.6,14.7-14.8,14.7h-177c-8.1,0-14.8-6.6-14.8-14.7V36.2c0-8.1,6.6-11.4,14.8-11.4h177c8.1,0,14.8,3.3,14.8,11.4V216.5L231.2,216.5z"/></g></g>
</svg>