<?xml version="1.0" encoding="iso-8859-1"?>
<!DOCTYPE svg PUBLIC "-//W3C//DTD SVG 1.1//EN" "http://www.w3.org/Graphics/SVG/1.1/DTD/svg11.dtd">
<svg fill="#000000" version="1.1" id="Capa_1" xmlns="http://www.w3.org/2000/svg" xmlns:xlink="http://www.w3.org/1999/xlink" 
	 width="20px" height="20px" viewBox="0 0 473.18 473.18"
	 xml:space="preserve">
<g>
	<path d="M457.096,17.818c-10.389-10.389-24.2-16.109-38.892-16.11c-14.692-0.001-28.503,5.722-38.893,16.109l-82.327,82.327
		c-18.955-5.322-39.062-8.2-59.904-8.2c-113.594,0-205.68,84.96-205.68,189.764c0,28.472,6.809,55.472,18.986,79.71L1.734,449.391
		c-2.703,4.888-2.215,10.917,1.24,15.307c2.672,3.397,6.721,5.3,10.91,5.3c1.223,0,2.457-0.163,3.674-0.498l106.506-29.233
		c32.436,19.72,71.27,31.206,113.016,31.206c113.594,0,205.682-84.96,205.682-189.764c0-46.859-18.417-89.744-48.928-122.847
		l63.262-63.263C478.542,74.153,478.542,39.261,457.096,17.818z M269.908,213.861c-2.473,0.509-5.03-0.259-6.813-2.042
		c-1.785-1.785-2.553-4.344-2.045-6.815l8.18-39.837l40.517,40.518L269.908,213.861z M324.405,192.935l-42.429-42.426l95.191-95.191
		l42.426,42.428L324.405,192.935z M439.418,77.92l-6.119,6.12l-42.428-42.428l6.119-6.118c11.717-11.717,30.711-11.716,42.428,0.001
		C451.133,47.209,451.133,66.206,439.418,77.92z"/>
</g>
</svg>